<?xml version="1.0" encoding="UTF-8" standalone="no"?>

<svg
   width="64mm"
   height="30mm"
   viewBox="0 0 64 30"
   version="1.1"
   id="svg1"
   xml:space="preserve"
   sodipodi:docname="kbps_logo_white.svg"
   inkscape:export-batch-path="C:\Users\yurki\Sites\krakhmalnikov.eu\Logo"
   inkscape:version="1.5-dev (9bf5e73, 2025-04-11, custom)"
   xmlns:inkscape="http://www.inkscape.org/namespaces/inkscape"
   xmlns:sodipodi="http://sodipodi.sourceforge.net/DTD/sodipodi-0.dtd"
   xmlns="http://www.w3.org/2000/svg"
   xmlns:svg="http://www.w3.org/2000/svg"
   xmlns:rdf="http://www.w3.org/1999/02/22-rdf-syntax-ns#"
   xmlns:cc="http://creativecommons.org/ns#"
   xmlns:dc="http://purl.org/dc/elements/1.1/">
   <sodipodi:namedview
     id="namedview1"
     pagecolor="#ffffff"
     bordercolor="#000000"
     borderopacity="0.25"
     inkscape:showpageshadow="2"
     inkscape:pageopacity="0.0"
     inkscape:pagecheckerboard="0"
     inkscape:deskcolor="#d1d1d1"
     inkscape:document-units="mm"
     showgrid="false"
     inkscape:zoom="2"
     inkscape:cx="138"
     inkscape:cy="69.75"
     inkscape:window-width="1920"
     inkscape:window-height="1020"
     inkscape:window-maximized="1"
     inkscape:current-layer="layer1" /><defs
     id="defs1" /><g
     inkscape:label="logo"
     inkscape:groupmode="layer"
     id="layer1"
     inkscape:highlight-color="#3b80eeff"><g
       id="group-R5"
       transform="matrix(0.26458333,0,0,0.26458333,23.344604,23.69734)"
       style="fill:#ffffff;fill-opacity:1"><path
         id="path954"
         d="m -43.918028,-0.13231279 c -2.776,0.804 -4.30933,0.293333 -4.30933,0.293333 0,0 0.65733,1.86533299 2.60666,1.89733299 2.29734,0.03733 3.09867,-0.98 3.27067,-1.24933299 -0.056,0.110667 -0.168,0.38266699 -0.27733,1.01199999 -0.23734,1.342667 0.97333,2.502667 0.97333,2.502667 0,0 -0.34667,-0.578667 0.056,-1.938667 0.72133,-2.45066699 2.42667,-3.394667 2.42667,-3.394667 0,0 -1.972,0.07467 -4.74667,0.87733401"
         style="fill:#ffffff;fill-opacity:1;fill-rule:nonzero;stroke:none;stroke-width:0.133333" /><path
         id="path955"
         d="m 5.0970155,-41.629657 c -1.349333,-0.48 -3.181333,0.044 -4.65600004,0.936 l -0.673333,0.393333 V -59.58699 c 0,0 -4.58399996,2.202666 -4.58399996,8.965333 0,6.766667 0,37.345332 0,37.345332 l 4.58399996,-0.645333 v -25.943999 c 0.864,-0.402667 1.76266704,-0.726667 2.36266704,-0.688 2.152,0.144 1.993333,4.041333 1.993333,4.041333 l 0.03867,3.602667 v 18.441332 l 4.585333,-0.648 c 0,-8.739999 0,-14.947999 0,-17.573332 0,-6.406667 -2.010667,-8.356 -3.650667,-8.94"
         style="fill:#ffffff;fill-opacity:1;fill-rule:nonzero;stroke:none;stroke-width:0.133333" /><path
         id="path956"
         d="m -11.333651,-32.838991 c -1.345333,-0.48 -3.178667,0.044 -4.653333,0.937334 l -0.977333,0.572 c 0.044,-0.185334 0.088,-0.369334 0.138666,-0.552 0,0 0.546667,-2.582667 2.926667,-3.754667 3.02,-1.494666 5.1293335,-3.802666 5.5293335,-6.06 0.322667,-1.817333 -0.110667,-3.518667 -0.290667,-4.109333 -0.04267,-0.141334 -0.068,-0.136 -0.07333,0.0067 -0.024,0.496 -0.194667,1.706667 -1.236,2.720001 -1.3453335,1.309333 -2.7280005,1.637333 -4.5493335,4.184 -1.241334,1.738666 -2.101333,4.834666 -2.524,6.625333 v -24.910701 c 0,0 -4.580422,2.201334 -4.582667,8.964 l -0.01105,33.282452 c -0.413333,0.430667 -1.247255,1.235062 -1.865922,1.796396 -0.705333,0.489333 -1.236362,0.927818 -1.833695,0.718485 -1.369334,-0.477334 -1.136,-2.124 -1.154667,-2.996 0,-6.250513 0.01432,-0.527533 -0.0013,-12.330662 l -4.585333,2.772 v 8.888002 h 0.0027 c 0.07661,4.371664 4.256003,6.1127012 5.389333,5.548 0.670599,-0.336116 3.310445,-3.027482 4.06,-3.804 v 3.469333 l 4.582667,-0.645333 v -19.370673 c 0.973333,-0.482667 2.056,-0.918667 2.745333,-0.873333 2.152,0.141333 1.993333,4.04 1.993333,4.04 0.07698,6.638263 0.03867,13.277385 0.03867,19.9159992 l 4.5853335,-0.645333 V -23.897658 c 0,-6.409333 -2.010666,-8.355999 -3.6533335,-8.941333"
         style="fill:#ffffff;fill-opacity:1;fill-rule:nonzero;stroke:none;stroke-width:0.133333"
         sodipodi:nodetypes="ccccccccccccscccccccccccccccccsc" /><path
         id="path957"
         d="m 98.298349,-48.392324 c -1.34934,-0.481333 -3.18267,0.04267 -4.65467,0.933334 l -0.98133,0.573333 c 0.048,-0.185333 0.092,-0.369333 0.14133,-0.549333 0,0 0.54667,-2.584 2.92667,-3.758667 3.02,-1.492 5.129331,-3.801333 5.530661,-6.058667 0.32267,-1.816 -0.11066,-3.515999 -0.292,-4.107999 -0.0427,-0.142667 -0.068,-0.137334 -0.0733,0.008 -0.024,0.494666 -0.19467,1.705333 -1.237331,2.718666 -1.344,1.309333 -2.728,1.636 -4.54667,4.184 -1.24267,1.74 -2.10267,4.832 -2.524,6.622667 v -24.909333 c 0,0 -4.58667,2.204 -4.58667,8.966666 v 33.47552 c -0.408,0.428 -1.17988,1.244271 -1.77188,1.782938 -0.704,0.490667 -1.28412,0.864208 -1.88278,0.656208 -1.368,-0.477333 -1.15467,-3.042666 -1.156,-3.065333 v -12.265333 l -0.003,-0.03067 c -0.436,-5.950666 -4.58533,-7.870666 -4.58533,-7.870666 0,0 0,19.246669 0.005,19.516002 v 0.04667 0 c 0.009,0.534667 0.0493,1.038667 0.18667,1.638667 0.456,1.988 3.66533,4.678666 5.20266,3.912 0.548,-0.276 1.69334,-1.404 2.70667,-2.466667 0.47333,-0.441333 0.93733,-0.906666 1.29733,-1.28 v 3.293333 l 4.58667,-0.644 v -19.374666 c 0.96933,-0.482667 2.056,-0.916 2.74267,-0.870667 2.15333,0.141334 1.99333,4.040001 1.99333,4.040001 l 0.04,3.603999 v 16.312 l 4.584001,-0.644 v -15.450666 c 0,-6.406667 -2.010671,-8.356 -3.649331,-8.937334"
         style="fill:#ffffff;fill-opacity:1;fill-rule:nonzero;stroke:none;stroke-width:0.133333"
         sodipodi:nodetypes="ccccccccccccscccccccccsccccccccccccsc" /><path
         id="path958"
         d="m -33.986984,-10.822991 c -1.682666,-0.46 -1.468,-2.456 -1.468,-2.456 v -16.62 c 0.181499,-4.54623 4.020844,-4.68 4.472,-4.68 1.096,0 2.098667,0.396 2.876,1.048 0.612,0.561334 1.421333,2.132 1.552,2.784 0.0067,0.028 0.016,0.02667 0.01733,0 0.05067,-1.284 -0.245333,-2.904 -1.125333,-3.930666 -1.353333,-1.581334 -3.841333,-2.242667 -5.874666,-1.813334 -0.873233,0.183348 -2.317135,0.694993 -3.708,2.122664 -1.285334,1.322666 -2.796,3.702666 -2.796,7.584 v 13.313333 c 0,0 0.0038,1.407054 0.451417,2.309314 -0.174667,0.265333 -1.32912,1.8062782 -2.150285,2.2483812 -0.821165,0.442104 -4.438681,1.01417 -5.221099,-0.748359 -0.212,-0.4946672 -0.238667,-1.4733332 -0.044,-2.9013332 0.570667,-4.164 2.497333,-10.988 2.641333,-11.590667 0.221334,-0.932 0.845334,-2.334666 0.601334,-4.393333 -0.272,-2.289333 -2.478667,-3.632 -4.276,-4.708 -1.17773,-0.697676 -2.2431,-1.518715 -3.202696,-2.490666 0.466666,-1.984 0.573333,-3.626667 0.433333,-4.358667 -0.124,-0.636 -0.681333,-1.093333 -1.245333,-1.02 -0.242667,0.02933 -1.033334,0.262667 -0.928,1.910667 0.084,1.313333 0.564,2.341333 1.218666,3.188 -0.03467,0.09467 -1.122666,2.992 -4.697333,4.345333 -4.022667,1.522667 -8.036,3.582667 -10.14,8.329333 -0.506666,1.144 -1.144,2.829333 -1.592,4.048 V -58.80699 c 0,0 -4.586667,2.204 -4.586667,8.969333 v 60.897332 l 4.586667,-0.642667 v -28.455999 c 0.378667,-0.241334 3.418667,-2.134667 4.818667,-2.042667 2.152,0.142667 1.993333,4.041333 1.993333,4.041333 l 0.03867,3.602667 V 5.0996752 h 0.0027 c -0.01067,0.817333 0.032,1.570666 0.148,2.233333 0.936,5.4319998 4.334666,6.6386668 5.292,6.8906668 0.696,0.182666 1.516,0.285333 2.342666,0.285333 2.7935,0.0974 4.69292,-1.54667 6.233333,-3.716 l -0.222667,-0.138667 c -1.239438,1.498525 -3.09822,2.82869 -5.029407,3.05359 -1.986825,0.231379 -4.106656,-1.342966 -4.182592,-2.98425 v -22.939967 c 0,-6.408 -2.009333,-8.357333 -3.649333,-8.941333 -1.349334,-0.48 -3.181333,0.04533 -4.656,0.936 l -2.809333,1.642667 c 1.048,-1.304 3.218666,-3.670667 5.882666,-4.732 3.516,-1.397372 6.605333,-2.902705 8.822666,-7.170705 0.873334,-1.682667 1.478667,-3.438667 1.864,-5.004 0.653424,0.699383 1.572422,1.414712 2.158696,1.804 0.648,0.632 1.401334,1.877333 0.901334,4.062666 -0.154667,0.672 -0.365334,1.501334 -0.608,2.462667 -1.042667,4.106666 -2.546666,10.089333 -1.976,13.393333 0.782666,4.5400002 3.622666,5.5493332 4.422666,5.7586662 0.581334,0.153334 1.266667,0.241334 1.957334,0.241334 0.997333,0 2.002666,-0.185334 2.714666,-0.612 1.168,-0.616 2.093333,-1.8933342 2.390667,-2.3360002 0.556,0.9653332 1.552,1.8120002 3.338666,1.8120002 4.149334,0 5.349334,-4.1613342 5.349334,-4.1613342 l 0.04933,-0.246666 c 0,0 -1.068,3.116 -3.382667,2.484"
         style="fill:#ffffff;fill-opacity:1;fill-rule:nonzero;stroke:none;stroke-width:0.133333"
         sodipodi:nodetypes="cccsccccccscczccccccccccccccsccccccccccsccscscccccccccccsccsccc" /><path
         id="path959"
         d="m 71.081009,-48.777657 c -1.34933,-0.478667 -3.18133,0.044 -4.65333,0.937333 l -1.752,1.024 c -1.35867,-2.617333 -3.36667,-3.585333 -3.36667,-3.585333 l 0.006,24.585698 c -0.32,0.318667 -0.83486,0.826871 -1.1922,1.150871 -0.70533,0.489333 -1.30132,0.83943 -1.89865,0.631431 -1.36933,-0.478667 -1.15733,-3.042667 -1.15733,-3.066667 v -12.264 l -10e-4,0.0027 V -77.84699 c 0,0 -4.58534,2.204 -4.58534,8.968 0,0 -10e-4,40.859999 0.003,41.129333 v 0.04667 h 0.001 c 0.007,0.360837 0.0596,1.68475 0.43844,2.383375 -0.39466,0.418666 -1.19527,1.231645 -1.9046,1.875644 -0.70667,0.490667 -1.27117,0.886313 -1.86717,0.68098 -1.37067,-0.478667 -1.13733,-2.127999 -1.15467,-2.998666 0,-0.02133 -0.003,-0.04267 -0.003,-0.06667 V -38.09499 l -4.584,2.773333 v 8.888 h 10e-4 c 0.0107,0.533333 0.048,1.036 0.188,1.641333 0.06,0.268 0.0965,0.393083 0.2472,0.677083 -0.144,0.444 -0.62176,1.415667 -1.21909,2.147667 -0.55067,0.593333 -1.10411,1.076583 -2.12811,0.797916 -1.682668,-0.458666 -1.469335,-2.454666 -1.469335,-2.454666 V -40.24699 c 0.173318,-4.555799 4.057835,-4.677334 4.472005,-4.677334 1.09866,0 2.1,0.393333 2.87733,1.045334 0.612,0.561333 1.42,2.133333 1.55333,2.784 0.005,0.028 0.0147,0.02667 0.016,0 0.0493,-1.284 -0.244,-2.901334 -1.12533,-3.930667 -1.356,-1.581334 -3.83867,-2.241333 -5.87467,-1.814667 -0.748,0.157333 -1.38666,0.436 -1.918665,0.742667 v -0.0013 c 0,0 -0.832,0.4 -1.787999,1.382667 -1.286667,1.324 -2.797334,3.704 -2.797334,7.585334 v 7.838666 h 0.0013 v 5.476 c 0,0 -0.05906,0.745083 0.279603,1.746416 -0.342666,0.364 -1.054708,1.055646 -1.654708,1.600979 -0.604,0.42 -1.098229,0.787271 -1.610229,0.608604 -1.174666,-0.409333 -0.973333,-1.822666 -0.989333,-2.567999 -0.0027,-0.01867 -0.0027,-0.03867 -0.0027,-0.05867 0,0 -0.01843,-11.371305 0.0134,-15.153364 0.02133,-1.814666 0.032,-2.812 -1.057334,-3.636 -0.378666,-0.282666 -0.777333,-0.378666 -1.185333,-0.288 -1.062667,0.238667 -1.818667,1.662667 -1.849333,1.721334 l -1.954667,3.501333 c -0.234877,0.402364 -0.45541,0.813089 -0.682666,1.22 v -1.642667 c 0,-0.314666 0.004,-0.604 0.0067,-0.876 0.02133,-1.814666 0.03333,-2.812 -1.057333,-3.636 -0.378667,-0.282666 -0.776,-0.378666 -1.185333,-0.288 -1.061334,0.238667 -1.818667,1.662667 -1.849334,1.721334 l -1.954666,3.501333 c -0.218508,0.374146 -0.42114,0.757262 -0.632,1.136 -0.329334,-6.168 -4.564,-8.204 -4.564,-8.204 v 27.810666 l 4.585333,-0.645334 v -18.197332 c 0,-0.118667 -0.004,-0.230667 -0.0067,-0.344 l 0.806154,-1.447997 c 0.258667,-0.413333 0.625333,-0.876 0.958667,-0.934666 0.129333,-0.02267 0.246666,0.02133 0.358666,0.130666 0.629334,0.628 0.614667,1.588 0.597334,2.916 -0.01731,3.854107 -0.0067,7.708483 -0.0067,11.562663 l 3.942667,-7.066666 v -5.046667 c 0.168404,-0.34526 1.512034,-3.034437 2.1893,-2.36533 0.629333,0.628 0.613333,1.588 0.597333,2.916 -0.004,0.234667 -0.008,0.478667 -0.008,0.733333 0.0026,3.447537 0.0096,6.895161 0.01067,10.342663 v 0.04 0 c 0.06659,3.81763 3.702222,5.211867 4.617333,4.756 0.470667,-0.237333 1.450667,-1.201333 2.318667,-2.114666 0.521333,-0.484 1.032,-1.009334 1.356,-1.350667 0.462666,1.202667 1.465333,2.473333 3.650666,2.473333 3.959074,0 5.430284,-3.985258 5.590664,-4.457333 1.06133,1.733333 3.46,3.445333 4.72533,2.814667 1.58541,-1.190203 2.96259,-2.666858 4.34,-4.096 1.05734,1.736 3.46267,3.458666 4.73333,2.825333 1.29062,-0.880215 2.31713,-2.085984 3.436,-3.169333 v 2.733333 l 4.584,-0.644 v -18.198666 c 0,-2.129333 -0.45466,-3.809334 -1.07733,-5.108 1.08267,-0.578667 2.476,-1.212 3.29867,-1.158667 2.15333,0.142667 1.99333,4.04 1.99333,4.04 l 0.04,3.604 v 16.312 l 4.584,-0.642667 v -15.450666 c 0,-6.406667 -2.01067,-8.354667 -3.65067,-8.94"
         style="fill:#ffffff;fill-opacity:1;fill-rule:nonzero;stroke:none;stroke-width:0.133333"
         sodipodi:nodetypes="cccccccscccscccccccsccccccccccsccccccccscccccccsccccccscccccccccsccccccccccsccscccscccccccsccccccsc" /><path
         id="path960"
         d="m 83.182349,-62.041657 -4.58,0.642667 v 7.984 c 0,0 4.428,-2.130667 4.58,-8.626667"
         style="fill:#ffffff;fill-opacity:1;fill-rule:nonzero;stroke:none;stroke-width:0.133333" /><path
         id="path961"
         d="m 135.48501,-62.517657 c -1.95466,-7.116 -6.36133,-11.519999 -13.10133,-13.094666 -3.43467,-0.802667 -6.26667,-0.861333 -8.58133,-0.513333 -1.12625,0.138602 -3.8286,0.659885 -6.38367,2.585341 -2.79067,2.105333 -3.76534,4.678666 -3.776,4.702666 l 0.204,0.07867 c 0.009,-0.02667 0.964,-2.54 3.70266,-4.606667 1.92934,-1.453333 4.10267,-2.215999 6.284,-2.541333 0.672,-0.048 3.064,-0.124 5.94667,0.849334 3.13067,1.062666 7.488,3.617333 10.47067,9.771999 6.32666,13.068 2.216,27.757333 1.72533,29.388 -1.53543,5.12462 -6.244,13.457926 -6.244,13.457926 v -25.723259 c 0,-6.764 -4.58533,-8.968 -4.58533,-8.968 v 42.595999 c -0.003,0.0027 -0.007,0.008 -0.008,0.01067 l 0.0173,0.372 c 9.56817,-14.360055 13.4911,-26.400079 14.12103,-28.848002 0.95067,-4.108001 2.24134,-12.104001 0.208,-19.517334"
         style="fill:#ffffff;fill-opacity:1;fill-rule:nonzero;stroke:none;stroke-width:0.133333"
         sodipodi:nodetypes="ccccccccccccscccccc" /><path
         id="path962"
         d="m 113.59168,-45.128324 v 13.109333 c -0.116,1.122667 -1.064,1.998667 -2.216,1.998667 -1.05333,0 -1.93333,-0.729333 -2.16667,-1.709333 -0.0213,-0.162667 -0.036,-0.325334 -0.0453,-0.474667 v -7.136 -1.696 -1.017333 -0.0053 -1.373333 -0.849334 -8.166667 c 0.11467,-1.122666 1.06267,-1.996 2.216,-1.996 1.05333,0 1.93067,0.726667 2.164,1.706667 0.0227,0.164 0.0373,0.325333 0.048,0.477333 z m 0.49467,-9.133333 c -1.25334,-0.785333 -3.53067,-1.170667 -5.464,0.388 -1.21467,0.824 -4.044,3.324 -4.044,8.638666 0,0.194667 0,0.693334 0,1.598667 0,0.06533 0,0.136 0,0.204 0,0.234667 0,0.478667 0,0.734667 0,0.412 0,0.845333 0,1.282667 0,0.125333 0,0.253333 0,0.378666 0,0.361334 0,0.717334 0,1.053334 0,0.406666 0,0.784 0,1.106666 0,5.386667 2.90666,7.878667 4.08933,8.670667 1.252,0.786666 3.53067,1.172 5.46533,-0.386667 1.21334,-0.824 4.04134,-3.324 4.04134,-8.638666 0,-0.193334 0,-0.693334 0,-1.598667 0,-0.06533 0,-0.136 0,-0.206667 0,-0.217333 0,-0.462666 0,-0.734666 0,-0.373334 0,-0.797334 0,-1.28 0,-0.129334 0,-0.254667 0,-0.381334 0,-0.358666 0,-0.714667 0,-1.050667 0,-0.406666 0,-0.785333 0,-1.108 0,-5.385333 -2.90534,-7.877333 -4.088,-8.670666"
         style="fill:#ffffff;fill-opacity:1;fill-rule:nonzero;stroke:none;stroke-width:0.133333" /><path
         id="path963"
         d="m 38.422472,-8.2756978 1.205327,-0.158666 c 0.17333,-0.0053 1.70667,0.044 1.70667,2.158666 0,1.654667 -1.78534,3.066667 -2.911997,3.796 z m 4.013327,9.928 v -4.046667 l -0.61867,0.08267 v 4.053333 c 0,0.0027 -0.003,0.206667 -0.12,0.344 -0.0707,0.08 -0.17466,0.129334 -0.31866,0.149334 -0.42667,0.056 -0.50934,-0.284 -0.52267,-0.405334 v -2.913333 c 0,-0.568 -0.15467,-0.968 -0.456,-1.188 -0.32133,-0.236 -0.69467,-0.176 -0.804,-0.152 l -0.282667,0.036 c 1.195997,-0.877333 2.641337,-2.288 2.641337,-3.972 0,-2.197333 -1.48934,-2.726666 -2.27734,-2.701333 l -3.426657,0.458667 v 0.62 l 0.62266,-0.08667 v 10.902666 l -0.62266,0.084 v 0.62 l 2.76266,-0.368 v -0.62 l -0.59066,0.07867 v -4.277333 l 1.190657,-0.157334 0.04,-0.008 c 0.007,-0.0027 0.196,-0.048 0.34667,0.068 0.15467,0.118667 0.236,0.376 0.236,0.74666701 V 1.9296382 l 10e-4,0.028 c 0.032,0.356 0.30933,1.006667 1.14133,0.894667 0.39067,-0.052 0.63067,-0.244 0.76134,-0.392 0.29866,-0.348 0.29866,-0.770667 0.296,-0.808"
         style="fill:#ffffff;fill-opacity:1;fill-rule:nonzero;stroke:none;stroke-width:0.133333"
         sodipodi:nodetypes="ccscccccscccscccsccccccccccccccsccccc" /><path
         id="path964"
         d="m 88.330469,-14.949031 1.20533,-0.161333 c 0.172,0 1.70666,0.04533 1.70666,2.161333 0,1.653333 -1.78666,3.0693332 -2.91199,3.7960002 z m 4.01333,9.9266672 v -4.044 l -0.61867,0.08133 v 4.053333 c 0,0.0027 -0.004,0.206667 -0.12267,0.341334 -0.068,0.08267 -0.17333,0.129333 -0.316,0.149333 -0.428,0.05733 -0.51066,-0.282667 -0.524,-0.404 v -2.910667 c 0,-0.569333 -0.15466,-0.968 -0.45466,-1.189333 -0.32267,-0.238667 -0.69467,-0.176 -0.804,-0.152 l -0.28267,0.036 c 1.196,-0.877333 2.64,-2.2906672 2.64,-3.9720002 0,-2.197333 -1.48933,-2.729333 -2.27733,-2.701333 l -3.42667,0.458666 v 0.618667 l 0.62267,-0.084 v 10.9040002 l -0.62267,0.08133 v 0.62 l 2.764,-0.370667 v -0.618666 l -0.59066,0.08 v -4.276 l 1.19066,-0.158667 0.0373,-0.0067 c 0.009,-0.004 0.19734,-0.048 0.34934,0.06667 0.15466,0.118667 0.236,0.376 0.236,0.744 v 2.933334 0.024 c 0.032,0.358666 0.31066,1.008 1.14266,0.897333 0.39067,-0.052 0.62934,-0.244 0.76,-0.394667 0.29867,-0.346666 0.29867,-0.765333 0.29734,-0.806666"
         style="fill:#ffffff;fill-opacity:1;fill-rule:nonzero;stroke:none;stroke-width:0.133333"
         sodipodi:nodetypes="ccscccccscccscccsccccccccccccccsccscc" /><path
         id="path965"
         d="m 72.758469,-12.841031 v -0.62 l -2.76534,0.370667 v 0.616 l 1.07334,-0.141334 v 5.9680002 l -3.09334,0.414667 v -5.9693332 l 0.60667,-0.08 v -0.618667 l -2.764,0.369333 v 0.617334 l 0.60667,-0.08 v 10.8773332 l -0.60667,0.08267 v 0.61733401 l 2.764,-0.368 V -1.4036938 l -0.60667,0.08133 v -4.293333 l 3.09334,-0.410666 v 4.289333 l -1.07334,0.144 v 0.61866601 l 2.76534,-0.36933301 v -0.62 l -1.072,0.144 V -12.699697 l 1.072,-0.141333"
         style="fill:#ffffff;fill-opacity:1;fill-rule:nonzero;stroke:none;stroke-width:0.133333"
         sodipodi:nodetypes="ccccccccccccccccccccccccccccc" /><path
         id="path966"
         d="m 29.001136,3.8883022 -0.588,0.07867 v -4.38399999 c 0.358666,-0.213334 1.154666,-0.71600001 1.898666,-1.43866701 0.412,0.144 1.554667,0.72 1.554667,2.66800001 0,2.56933299 -2.757333,3.05599999 -2.865333,3.07599999 z m 2.321333,-8.826666 c 0,1.763999 -2.012,3.254666 -2.909333,3.833333 v -5.833333 l 1.205333,-0.158667 c 0.172,-0.0027 1.704,0.04533 1.704,2.158667 z m -0.529333,2.577333 c 0.64,-0.742667 1.149333,-1.649333 1.149333,-2.658667 0,-2.197333 -1.489333,-2.729333 -2.276,-2.701333 l -3.428,0.456 v 0.62 l 0.622667,-0.084 v 10.902666 l -0.622667,0.084 v 0.62 l 2.772,-0.372 c 1.201333,-0.196 3.474663,-1.238666 3.474663,-3.77733299 0,-2.02266701 -1.070663,-2.80533301 -1.691996,-3.08933301"
         style="fill:#ffffff;fill-opacity:1;fill-rule:nonzero;stroke:none;stroke-width:0.133333"
         sodipodi:nodetypes="ccccsscscccscsccccccccsc" /><path
         id="path967"
         d="m 48.289129,1.0109692 v -10.308 c 0.3,-0.228 0.65467,-0.385333 1.03467,-0.436 0.37467,-0.048 0.72267,0.0093 1.02133,0.152 V 0.74563521 c -0.29866,0.221334 -0.64666,0.37466699 -1.02133,0.42666699 -0.38,0.04933 -0.73467,-0.01333 -1.03467,-0.161333 z m 1.03467,-11.3613332 c -1.42933,0.190666 -2.59067,1.5066662 -2.59067,2.9373332 v 6.95733301 c 0,1.429333 1.16134,2.43599999 2.59067,2.24533299 1.43067,-0.192 2.59333,-1.51066599 2.59333,-2.937333 v -6.958666 c 0,-1.429334 -1.16266,-2.4360002 -2.59333,-2.2440002"
         style="fill:#ffffff;fill-opacity:1;fill-rule:nonzero;stroke:none;stroke-width:0.133333"
         sodipodi:nodetypes="ccccccccsscssc" /><path
         id="path968"
         d="m 56.366469,-11.295698 v 6.6746672 l 0.61866,-0.08267 v -4.08 c 0,-0.941333 0.66267,-1.8186662 1.54534,-2.1306662 v 10.85199921 l -0.60667,0.084 v 0.617334 l 2.76533,-0.368 v -0.621334 l -0.60666,0.084 V -11.122364 c 0.88266,0.07733 1.544,0.776 1.544,1.7173332 v 0.690667 3.389333 l 0.62,-0.08133 v -3.389334 -0.690666 -2.5933342 l -5.88,0.784"
         style="fill:#ffffff;fill-opacity:1;fill-rule:nonzero;stroke:none;stroke-width:0.133333"
         sodipodi:nodetypes="cccsccccccccsccccccc" /><path
         id="path969"
         d="m 101.2078,-16.981031 v 0.606667 c -0.47467,-0.497334 -1.18267,-0.757333 -1.972001,-0.652 -1.428,0.190666 -2.592,1.509333 -2.592,2.937333 v 0.04267 l -0.005,0.350666 c -0.004,0.05333 -0.0693,1.344 0.88133,1.778667 l 0.32667,0.146667 c 0.58,0.264 1.744,0.789333 2.410671,1.126666 v 4.7173342 c -0.297341,0.218666 -0.646671,0.370666 -1.021341,0.422666 -1.08933,0.144 -1.97333,-0.618666 -1.97333,-1.709333 v -0.004 -2.521333 l -0.61867,0.08133 v 4.809333 l 0.61867,-0.08133 v -0.606667 c 0.47733,0.497334 1.184,0.757334 1.97333,0.652 1.429341,-0.192 2.590671,-1.510666 2.590671,-2.938666 v -1.442667 c 0,-0.9333332 -0.27867,-1.3306672 -0.70267,-1.6426672 -0.3,-0.224 -1.661331,-0.848 -2.924001,-1.42 v -3.642666 c 0.30134,-0.228 0.656,-0.385334 1.036,-0.434667 1.086671,-0.146667 1.972001,0.62 1.972001,1.706667 v 0.692 0.916 l 0.61867,-0.08267 v -0.917333 -0.690667 -2.281333 l -0.61867,0.08133"
         style="fill:#ffffff;fill-opacity:1;fill-rule:nonzero;stroke:none;stroke-width:0.133333"
         sodipodi:nodetypes="cccscccccccscccccccssccccsccccccc" /><path
         id="path970"
         d="m 81.511799,-7.0236978 v 1.917334 c 0,1.089333 -0.88667,2.090666 -1.97333,2.235999 l -0.756,0.102667 v -4.290666 l 0.56133,-0.076 v 0 0.0027 c 0.007,0 0.012,-0.0027 0.0173,-0.0027 0.548,-0.064 0.988,0.322666 0.988,0.872 v 0.158666 0.238667 l 0.61867,-0.08133 v -0.241334 -0.156 -1.048 h 0.004 v -0.576 l -0.004,0.0013 v -1.006667 -0.158667 -0.238666 l -0.61867,0.08133 v 0.241333 0.158667 c 0,0.536 -0.42267,1.028 -0.95067,1.128 l -0.616,0.084 v -5.9946672 l 0.60134,-0.08 c 1.08933,-0.145333 1.97333,0.62 1.97333,1.708 v 0.690667 0.918667 l 0.62,-0.084 v -0.916 -0.690667 -2.594667 l -5.56933,0.746667 v 0.62 l 0.82133,-0.109333 v 10.8999992 l -0.82133,0.110667 v 0.618667 l 5.724,-0.762667 v -2.593333 -0.690667 -1.226666 l -0.62,0.08267"
         style="fill:#ffffff;fill-opacity:1;fill-rule:nonzero;stroke:none;stroke-width:0.133333"
         sodipodi:nodetypes="cscccccccsccccccccccccccsccccsccccccccccccccccc" /><path
         id="path987"
         d="m -33.863358,-1.5003128 c 3.41866,-0.488 125.682917,-18.1207342 135.782918,-19.5167342 v -0.549333 c -10.073341,1.391999 -132.432258,19.0354002 -135.857588,19.5260672 -2.74933,0.394666 -4.64933,1.33600001 -5.496,2.72933301 -0.93421,1.54046399 -0.501471,4.10799999 1.928,4.10799999 1.337777,0 1.412,-0.92752 1.412,-1.133336 0,-0.606667 -0.492,-1.094667 -1.09733,-1.094667 -0.604,0 -1.096,0.488 -1.096,1.094667 0,0.182666 0.0493,0.352 0.12933,0.502666 -1.320588,-0.37062 -1.4569,-2.128088 -0.81067,-3.19333299 0.748,-1.232 2.56134,-2.10933301 5.10534,-2.47333301"
         style="fill:#ffffff;fill-opacity:1;fill-rule:nonzero;stroke:none;stroke-width:0.133333"
         sodipodi:nodetypes="cccccssssccc" /></g></g></svg>
